<mxfile host="app.diagrams.net" modified="2022-04-03T05:15:00.906Z" agent="5.0 (Windows NT 10.0; Win64; x64) AppleWebKit/537.36 (KHTML, like Gecko) Chrome/99.0.4844.84 Safari/537.36" etag="Go2SKdVABiXDWiZ4xwgZ" version="17.2.4" type="github">
  <diagram id="AHQxvIInp3seyibK6ZMS" name="Page-1">
    <mxGraphModel dx="716" dy="372" grid="1" gridSize="10" guides="1" tooltips="1" connect="1" arrows="1" fold="1" page="1" pageScale="1" pageWidth="850" pageHeight="1100" math="0" shadow="0">
      <root>
        <mxCell id="0" />
        <mxCell id="1" parent="0" />
        <mxCell id="uE9h87e7g1pPO8UFVxm6-2" value="Main Page" style="html=1;" vertex="1" parent="1">
          <mxGeometry x="100" y="120" width="110" height="50" as="geometry" />
        </mxCell>
        <mxCell id="uE9h87e7g1pPO8UFVxm6-3" value="User Registration" style="html=1;" vertex="1" parent="1">
          <mxGeometry x="270" y="120" width="110" height="50" as="geometry" />
        </mxCell>
        <mxCell id="uE9h87e7g1pPO8UFVxm6-4" value="System Database" style="html=1;" vertex="1" parent="1">
          <mxGeometry x="440" y="120" width="110" height="50" as="geometry" />
        </mxCell>
        <mxCell id="uE9h87e7g1pPO8UFVxm6-5" value="Take Test" style="html=1;" vertex="1" parent="1">
          <mxGeometry x="610" y="120" width="110" height="50" as="geometry" />
        </mxCell>
        <mxCell id="uE9h87e7g1pPO8UFVxm6-6" value="" style="html=1;points=[];perimeter=orthogonalPerimeter;" vertex="1" parent="1">
          <mxGeometry x="150" y="210" width="10" height="210" as="geometry" />
        </mxCell>
        <mxCell id="uE9h87e7g1pPO8UFVxm6-7" value="Registration" style="html=1;verticalAlign=bottom;endArrow=block;rounded=0;" edge="1" parent="1" target="uE9h87e7g1pPO8UFVxm6-8">
          <mxGeometry width="80" relative="1" as="geometry">
            <mxPoint x="160" y="210" as="sourcePoint" />
            <mxPoint x="310" y="210" as="targetPoint" />
          </mxGeometry>
        </mxCell>
        <mxCell id="uE9h87e7g1pPO8UFVxm6-8" value="" style="html=1;points=[];perimeter=orthogonalPerimeter;" vertex="1" parent="1">
          <mxGeometry x="320" y="210" width="10" height="80" as="geometry" />
        </mxCell>
        <mxCell id="uE9h87e7g1pPO8UFVxm6-9" value="Authentication" style="html=1;verticalAlign=bottom;endArrow=block;rounded=0;entryX=-0.24;entryY=0.002;entryDx=0;entryDy=0;entryPerimeter=0;" edge="1" parent="1" target="uE9h87e7g1pPO8UFVxm6-10">
          <mxGeometry width="80" relative="1" as="geometry">
            <mxPoint x="330" y="210" as="sourcePoint" />
            <mxPoint x="480" y="210" as="targetPoint" />
          </mxGeometry>
        </mxCell>
        <mxCell id="uE9h87e7g1pPO8UFVxm6-10" value="" style="html=1;points=[];perimeter=orthogonalPerimeter;" vertex="1" parent="1">
          <mxGeometry x="490" y="210" width="10" height="150" as="geometry" />
        </mxCell>
        <mxCell id="uE9h87e7g1pPO8UFVxm6-11" value="" style="html=1;points=[];perimeter=orthogonalPerimeter;" vertex="1" parent="1">
          <mxGeometry x="660" y="210" width="10" height="90" as="geometry" />
        </mxCell>
        <mxCell id="uE9h87e7g1pPO8UFVxm6-12" value="" style="html=1;points=[];perimeter=orthogonalPerimeter;" vertex="1" parent="1">
          <mxGeometry x="660" y="360" width="10" height="60" as="geometry" />
        </mxCell>
        <mxCell id="uE9h87e7g1pPO8UFVxm6-13" value="Valid" style="html=1;verticalAlign=bottom;endArrow=block;rounded=0;entryX=-0.055;entryY=0.004;entryDx=0;entryDy=0;entryPerimeter=0;" edge="1" parent="1" target="uE9h87e7g1pPO8UFVxm6-11">
          <mxGeometry width="80" relative="1" as="geometry">
            <mxPoint x="500" y="210" as="sourcePoint" />
            <mxPoint x="580" y="210" as="targetPoint" />
          </mxGeometry>
        </mxCell>
        <mxCell id="uE9h87e7g1pPO8UFVxm6-14" value="Not Valid" style="html=1;verticalAlign=bottom;endArrow=block;rounded=0;" edge="1" parent="1">
          <mxGeometry width="80" relative="1" as="geometry">
            <mxPoint x="660" y="250" as="sourcePoint" />
            <mxPoint x="500" y="250" as="targetPoint" />
          </mxGeometry>
        </mxCell>
        <mxCell id="uE9h87e7g1pPO8UFVxm6-15" value="Invalid User&lt;span style=&quot;color: rgba(0 , 0 , 0 , 0) ; font-family: monospace ; font-size: 0px ; background-color: rgb(248 , 249 , 250)&quot;&gt;%3CmxGraphModel%3E%3Croot%3E%3CmxCell%20id%3D%220%22%2F%3E%3CmxCell%20id%3D%221%22%20parent%3D%220%22%2F%3E%3CmxCell%20id%3D%222%22%20value%3D%22Not%20Valid%22%20style%3D%22html%3D1%3BverticalAlign%3Dbottom%3BendArrow%3Dblock%3Brounded%3D0%3B%22%20edge%3D%221%22%20parent%3D%221%22%3E%3CmxGeometry%20width%3D%2280%22%20relative%3D%221%22%20as%3D%22geometry%22%3E%3CmxPoint%20x%3D%22660%22%20y%3D%22250%22%20as%3D%22sourcePoint%22%2F%3E%3CmxPoint%20x%3D%22500%22%20y%3D%22250%22%20as%3D%22targetPoint%22%2F%3E%3C%2FmxGeometry%3E%3C%2FmxCell%3E%3C%2Froot%3E%3C%2FmxGraphModel%3E&lt;/span&gt;" style="html=1;verticalAlign=bottom;endArrow=block;rounded=0;" edge="1" parent="1">
          <mxGeometry width="80" relative="1" as="geometry">
            <mxPoint x="490" y="249.66" as="sourcePoint" />
            <mxPoint x="330" y="249.66" as="targetPoint" />
          </mxGeometry>
        </mxCell>
        <mxCell id="uE9h87e7g1pPO8UFVxm6-16" value="Complete Test" style="html=1;verticalAlign=bottom;endArrow=block;rounded=0;" edge="1" parent="1">
          <mxGeometry width="80" relative="1" as="geometry">
            <mxPoint x="660" y="300" as="sourcePoint" />
            <mxPoint x="500" y="300" as="targetPoint" />
          </mxGeometry>
        </mxCell>
        <mxCell id="uE9h87e7g1pPO8UFVxm6-17" value="Result" style="html=1;verticalAlign=bottom;endArrow=block;rounded=0;entryX=-0.055;entryY=0.004;entryDx=0;entryDy=0;entryPerimeter=0;" edge="1" parent="1">
          <mxGeometry width="80" relative="1" as="geometry">
            <mxPoint x="501" y="360" as="sourcePoint" />
            <mxPoint x="660.45" y="360.36" as="targetPoint" />
          </mxGeometry>
        </mxCell>
        <mxCell id="uE9h87e7g1pPO8UFVxm6-18" value="Logout" style="html=1;verticalAlign=bottom;endArrow=block;rounded=0;entryX=1.069;entryY=1;entryDx=0;entryDy=0;entryPerimeter=0;" edge="1" parent="1" target="uE9h87e7g1pPO8UFVxm6-6">
          <mxGeometry width="80" relative="1" as="geometry">
            <mxPoint x="661" y="420" as="sourcePoint" />
            <mxPoint x="501" y="420" as="targetPoint" />
          </mxGeometry>
        </mxCell>
        <mxCell id="uE9h87e7g1pPO8UFVxm6-20" value="" style="endArrow=none;dashed=1;html=1;rounded=0;entryX=0.5;entryY=1;entryDx=0;entryDy=0;exitX=0.517;exitY=-0.006;exitDx=0;exitDy=0;exitPerimeter=0;" edge="1" parent="1" source="uE9h87e7g1pPO8UFVxm6-6" target="uE9h87e7g1pPO8UFVxm6-2">
          <mxGeometry width="50" height="50" relative="1" as="geometry">
            <mxPoint x="160" y="210" as="sourcePoint" />
            <mxPoint x="200" y="160" as="targetPoint" />
          </mxGeometry>
        </mxCell>
        <mxCell id="uE9h87e7g1pPO8UFVxm6-21" value="" style="endArrow=none;dashed=1;html=1;rounded=0;entryX=0.5;entryY=1;entryDx=0;entryDy=0;exitX=0.517;exitY=-0.006;exitDx=0;exitDy=0;exitPerimeter=0;" edge="1" parent="1">
          <mxGeometry width="50" height="50" relative="1" as="geometry">
            <mxPoint x="324.1700000000001" y="210.74" as="sourcePoint" />
            <mxPoint x="324.0000000000001" y="172" as="targetPoint" />
          </mxGeometry>
        </mxCell>
        <mxCell id="uE9h87e7g1pPO8UFVxm6-22" value="" style="endArrow=none;dashed=1;html=1;rounded=0;entryX=0.5;entryY=1;entryDx=0;entryDy=0;exitX=0.517;exitY=-0.006;exitDx=0;exitDy=0;exitPerimeter=0;" edge="1" parent="1">
          <mxGeometry width="50" height="50" relative="1" as="geometry">
            <mxPoint x="495.1700000000001" y="210.74" as="sourcePoint" />
            <mxPoint x="495" y="172" as="targetPoint" />
          </mxGeometry>
        </mxCell>
        <mxCell id="uE9h87e7g1pPO8UFVxm6-23" value="" style="endArrow=none;dashed=1;html=1;rounded=0;entryX=0.5;entryY=1;entryDx=0;entryDy=0;exitX=0.517;exitY=-0.006;exitDx=0;exitDy=0;exitPerimeter=0;" edge="1" parent="1">
          <mxGeometry width="50" height="50" relative="1" as="geometry">
            <mxPoint x="664.1700000000001" y="209.74" as="sourcePoint" />
            <mxPoint x="664" y="171" as="targetPoint" />
          </mxGeometry>
        </mxCell>
        <mxCell id="uE9h87e7g1pPO8UFVxm6-24" value="" style="endArrow=none;dashed=1;html=1;rounded=0;entryX=0.5;entryY=1;entryDx=0;entryDy=0;exitX=0.386;exitY=-0.039;exitDx=0;exitDy=0;exitPerimeter=0;" edge="1" parent="1" source="uE9h87e7g1pPO8UFVxm6-12">
          <mxGeometry width="50" height="50" relative="1" as="geometry">
            <mxPoint x="664.1700000000001" y="338.74" as="sourcePoint" />
            <mxPoint x="664" y="300" as="targetPoint" />
          </mxGeometry>
        </mxCell>
        <mxCell id="uE9h87e7g1pPO8UFVxm6-25" value="" style="endArrow=none;dashed=1;html=1;rounded=0;entryX=0.5;entryY=1;entryDx=0;entryDy=0;exitX=0.386;exitY=-0.039;exitDx=0;exitDy=0;exitPerimeter=0;" edge="1" parent="1">
          <mxGeometry width="50" height="50" relative="1" as="geometry">
            <mxPoint x="663.8600000000001" y="476.65999999999985" as="sourcePoint" />
            <mxPoint x="664" y="419" as="targetPoint" />
          </mxGeometry>
        </mxCell>
        <mxCell id="uE9h87e7g1pPO8UFVxm6-26" value="" style="endArrow=none;dashed=1;html=1;rounded=0;entryX=0.5;entryY=1;entryDx=0;entryDy=0;" edge="1" parent="1">
          <mxGeometry width="50" height="50" relative="1" as="geometry">
            <mxPoint x="494" y="480" as="sourcePoint" />
            <mxPoint x="494" y="361" as="targetPoint" />
          </mxGeometry>
        </mxCell>
        <mxCell id="uE9h87e7g1pPO8UFVxm6-27" value="" style="endArrow=none;dashed=1;html=1;rounded=0;entryX=0.5;entryY=1;entryDx=0;entryDy=0;" edge="1" parent="1">
          <mxGeometry width="50" height="50" relative="1" as="geometry">
            <mxPoint x="325" y="480" as="sourcePoint" />
            <mxPoint x="325" y="291" as="targetPoint" />
          </mxGeometry>
        </mxCell>
        <mxCell id="uE9h87e7g1pPO8UFVxm6-28" value="" style="endArrow=none;dashed=1;html=1;rounded=0;entryX=0.5;entryY=1;entryDx=0;entryDy=0;exitX=0.386;exitY=-0.039;exitDx=0;exitDy=0;exitPerimeter=0;" edge="1" parent="1">
          <mxGeometry width="50" height="50" relative="1" as="geometry">
            <mxPoint x="154.86000000000013" y="478.65999999999985" as="sourcePoint" />
            <mxPoint x="155" y="421" as="targetPoint" />
          </mxGeometry>
        </mxCell>
      </root>
    </mxGraphModel>
  </diagram>
</mxfile>
